<?xml version="1.0" encoding="UTF-8" standalone="no"?>
<svg
   xmlns:dc="http://purl.org/dc/elements/1.1/"
   xmlns:cc="http://creativecommons.org/ns#"
   xmlns:rdf="http://www.w3.org/1999/02/22-rdf-syntax-ns#"
   xmlns:svg="http://www.w3.org/2000/svg"
   xmlns="http://www.w3.org/2000/svg"
   xmlns:sodipodi="http://sodipodi.sourceforge.net/DTD/sodipodi-0.dtd"
   xmlns:inkscape="http://www.inkscape.org/namespaces/inkscape"
   version="1.1"
   viewBox="0 0 12 15"
   id="svg831"
   sodipodi:docname="ai-logo-12x15.svg"
   width="12"
   height="15"
   style="fill:none"
   inkscape:version="0.92.4 (5da689c313, 2019-01-14)">
  <defs
     id="defs835" />
  <sodipodi:namedview
     pagecolor="#ffffff"
     bordercolor="#666666"
     borderopacity="1"
     objecttolerance="10"
     gridtolerance="10"
     guidetolerance="10"
     inkscape:pageopacity="0"
     inkscape:pageshadow="2"
     inkscape:window-width="2434"
     inkscape:window-height="1621"
     id="namedview833"
     showgrid="false"
     fit-margin-top="0"
     fit-margin-left="0"
     fit-margin-right="0"
     fit-margin-bottom="0"
     inkscape:zoom="63.833333"
     inkscape:cx="3.1015633"
     inkscape:cy="5.9631146"
     inkscape:window-x="607"
     inkscape:window-y="54"
     inkscape:window-maximized="0"
     inkscape:current-layer="svg831" />
  <metadata
     id="metadata815">
    <rdf:RDF>
      <cc:Work
         rdf:about="">
        <dc:format>image/svg+xml</dc:format>
        <dc:type
           rdf:resource="http://purl.org/dc/dcmitype/StillImage" />
        <dc:title></dc:title>
      </cc:Work>
    </rdf:RDF>
  </metadata>
  <rect
     style="opacity:1;fill:#fffff7;fill-opacity:1;stroke:#ffffff;stroke-width:7.98507929;stroke-miterlimit:4;stroke-dasharray:none;stroke-opacity:0.98207852"
     id="rect841"
     width="4.0149207"
     height="7.0149207"
     x="3.9925396"
     y="3.9925396" />
  <g
     display="none"
     id="g821"
     style="display:none"
     transform="translate(0.8683883,-46.4191)">
    <g
       transform="matrix(1.0155,0,0,1.0155,52.186,9.2228)"
       id="g819"
       style="fill:none">
      <path
         d="m 19.18,22 h 5.1 L 14.89,1 h -4.8 L 0.73,22 h 4.98 l 1.86,-4.5 h 9.75 z m -10.05,-8.19 3.33,-8.04 3.33,8.04 z m 27.086,8.55 c 3.66,0 6.69,-1.32 8.67,-3.75 l -3.12,-2.88 c -1.41,1.65 -3.18,2.49 -5.28,2.49 -3.93,0 -6.72,-2.76 -6.72,-6.72 0,-3.96 2.79,-6.72 6.72,-6.72 2.1,0 3.87,0.84 5.28,2.46 l 3.12,-2.88 c -1.98,-2.4 -5.01,-3.72 -8.64,-3.72 -6.54,0 -11.4,4.53 -11.4,10.86 0,6.33 4.86,10.86 11.37,10.86 z M 63.448,22 h 5.1 L 59.158,1 h -4.8 l -9.36,21 h 4.98 l 1.86,-4.5 h 9.75 z m -10.05,-8.19 3.33,-8.04 3.33,8.04 z M 70.727,22 h 9.54 c 6.87,0 11.58,-4.14 11.58,-10.5 C 91.847,5.14 87.137,1 80.267,1 h -9.54 z m 4.86,-3.99 V 4.99 h 4.44 c 4.17,0 6.9,2.49 6.9,6.51 0,4.02 -2.73,6.51 -6.9,6.51 z m 24.755,0.09 v -4.86 h 9.75 V 9.46 h -9.75 V 4.9 h 11.04 V 1 h -15.87 v 21 h 16.26 v -3.9 z m 38.967,3.9 -0.06,-21 h -3.99 L 127.519,14.05 119.659,1 h -4.02 v 21 h 4.56 V 9.67 l 6.15,10.11 h 2.19 l 6.18,-10.38 0.03,12.6 z m 4.983,0 h 4.86 V 1 h -4.86 z m 19.894,0.36 c 3.66,0 6.69,-1.32 8.67,-3.75 l -3.12,-2.88 c -1.41,1.65 -3.18,2.49 -5.28,2.49 -3.93,0 -6.72,-2.76 -6.72,-6.72 0,-3.96 2.79,-6.72 6.72,-6.72 2.1,0 3.87,0.84 5.28,2.46 l 3.12,-2.88 c -1.98,-2.4 -5.01,-3.72 -8.64,-3.72 -6.54,0 -11.4,4.53 -11.4,10.86 0,6.33 4.86,10.86 11.37,10.86 z M 3.486,50 h 4.86 V 29 H 3.486 Z M 27.79,29 V 41.75 L 17.35,29 h -4.02 v 21 h 4.8 V 37.25 L 28.6,50 h 3.99 V 29 Z m 25.639,3.9 V 29 h -15.87 v 21 h 4.86 v -7.65 h 9.72 v -3.9 h -9.72 V 32.9 Z M 56.7191,50 h 15.39 v -3.96 h -10.53 V 29 h -4.86 z m 27.172,0.36 c 5.97,0 9.51,-3.42 9.51,-9.6 V 29 h -4.8 v 11.58 c 0,3.99 -1.71,5.64 -4.68,5.64 -2.94,0 -4.68,-1.65 -4.68,-5.64 V 29 h -4.86 v 11.76 c 0,6.18 3.54,9.6 9.51,9.6 z m 19.143,-4.26 v -4.86 h 9.75 v -3.78 h -9.75 V 32.9 h 11.04 V 29 h -15.87 v 21 h 16.26 V 46.1 Z M 132.7911,29 V 41.75 L 122.3511,29 h -4.02 v 21 h 4.8 V 37.25 l 10.47,12.75 h 3.99 V 29 Z m 19.818,21.36 c 3.66,0 6.69,-1.32 8.67,-3.75 l -3.12,-2.88 c -1.41,1.65 -3.18,2.49 -5.28,2.49 -3.93,0 -6.72,-2.76 -6.72,-6.72 0,-3.96 2.79,-6.72 6.72,-6.72 2.1,0 3.87,0.84 5.28,2.46 l 3.12,-2.88 c -1.98,-2.4 -5.01,-3.72 -8.64,-3.72 -6.54,0 -11.4,4.53 -11.4,10.86 0,6.33 4.86,10.86 11.37,10.86 z m 16.782,-4.26 v -4.86 h 9.75 v -3.78 h -9.75 V 32.9 h 11.04 V 29 h -15.87 v 21 h 16.26 v -3.9 z"
         id="path817"
         inkscape:connector-curvature="0"
         style="fill:#367d8a" />
    </g>
  </g>
  <g
     id="g829"
     transform="scale(0.26540911,0.25)">
    <path
       d="M 45.213,0 H 0 v 60 l 7.955,-8.0654 0.00712,-41.698 h 29.288999 l -0.0012,41.698 7.9633,8.0654 z"
       id="path823"
       inkscape:connector-curvature="0"
       style="clip-rule:evenodd;fill:#0192c9;fill-rule:evenodd" />
    <path
       d="m 18.483,32.133 h 8.2464 V 55.982 H 18.483 Z"
       id="path825"
       inkscape:connector-curvature="0"
       style="fill:#e76c26;stroke-width:0.99684" />
    <path
       d="m 18.483,19.052 h 8.2464 v 8.2465 H 18.483 Z"
       id="path827"
       inkscape:connector-curvature="0"
       style="fill:#e76c26" />
  </g>
</svg>
